<?xml version="1.0" encoding="UTF-8"?>
<svg viewBox="0 0 60 60" xmlns="http://www.w3.org/2000/svg">
  <!-- Background circle -->
  <circle cx="30" cy="30" r="28" fill="#1f70c1" stroke="#ffffff" stroke-width="2"/>
  
  <!-- Central network node -->
  <circle cx="30" cy="30" r="6" fill="#ffffff"/>
  
  <!-- Network connections (lines) -->
  <line x1="30" y1="30" x2="15" y2="15" stroke="#ffffff" stroke-width="2"/>
  <line x1="30" y1="30" x2="45" y2="15" stroke="#ffffff" stroke-width="2"/>
  <line x1="30" y1="30" x2="15" y2="45" stroke="#ffffff" stroke-width="2"/>
  <line x1="30" y1="30" x2="45" y2="45" stroke="#ffffff" stroke-width="2"/>
  <line x1="30" y1="30" x2="30" y2="8" stroke="#ffffff" stroke-width="2"/>
  <line x1="30" y1="30" x2="30" y2="52" stroke="#ffffff" stroke-width="2"/>
  <line x1="30" y1="30" x2="8" y2="30" stroke="#ffffff" stroke-width="2"/>
  <line x1="30" y1="30" x2="52" y2="30" stroke="#ffffff" stroke-width="2"/>
  
  <!-- Outer network nodes -->
  <circle cx="15" cy="15" r="3" fill="#ffffff"/>
  <circle cx="45" cy="15" r="3" fill="#ffffff"/>
  <circle cx="15" cy="45" r="3" fill="#ffffff"/>
  <circle cx="45" cy="45" r="3" fill="#ffffff"/>
  <circle cx="30" cy="8" r="3" fill="#ffffff"/>
  <circle cx="30" cy="52" r="3" fill="#ffffff"/>
  <circle cx="8" cy="30" r="3" fill="#ffffff"/>
  <circle cx="52" cy="30" r="3" fill="#ffffff"/>
  
  <!-- Terminal/CLI indicator -->
  <rect x="25" y="26" width="10" height="8" fill="#1f70c1" stroke="#ffffff" stroke-width="1"/>
  <text x="30" y="32" text-anchor="middle" font-family="monospace" font-size="4" fill="#ffffff">ND</text>
</svg> 