<svg width="60" height="60" viewBox="0 0 60 60" xmlns="http://www.w3.org/2000/svg">
  <defs>
    <linearGradient id="bgGrad" x1="0" y1="0" x2="1" y2="1">
      <stop offset="0%" stop-color="#4FC3F7"/>
      <stop offset="100%" stop-color="#0288D1"/>
    </linearGradient>
    <filter id="shadow" x="-20%" y="-20%" width="140%" height="140%">
      <feDropShadow dx="0" dy="2" stdDeviation="2" flood-color="#000000" flood-opacity="0.3"/>
    </filter>
  </defs>
  <rect width="60" height="60" rx="12" fill="url(#bgGrad)"/>
  <g transform="translate(10, 12)" filter="url(#shadow)">
    <!-- Sun -->
    <circle cx="12" cy="12" r="6" fill="#FFD93B"/>
    <!-- Cloud -->
    <path d="M30 22c-1-5-6-8-11-6-1-3-4-5-7-5-4 0-8 4-8 8 0 4 3 7 7 7h18c3 0 6-3 6-6s-2-5-5-6z" fill="#fff"/>
    <!-- Raindrops -->
    <ellipse cx="16" cy="34" rx="2" ry="2.5" fill="#80D8FF"/>
    <ellipse cx="22" cy="34" rx="2" ry="2.5" fill="#40C4FF"/>
  </g>
</svg>